<?xml version="1.0" standalone="no"?>
<!DOCTYPE svg PUBLIC "-//W3C//DTD SVG 1.1//EN" "http://www.w3.org/Graphics/SVG/1.1/DTD/svg11.dtd" >
<svg xmlns="http://www.w3.org/2000/svg">
<metadata>
Created by FontForge 20120731 at Thu Jul 28 11:26:29 2016
 By admin
</metadata>
<defs>
<font id="iconfont" horiz-adv-x="1024" >
  <font-face 
    font-family="iconfont"
    font-weight="500"
    font-stretch="normal"
    units-per-em="1024"
    panose-1="2 0 6 3 0 0 0 0 0 0"
    ascent="896"
    descent="-128"
    x-height="792"
    bbox="2 -132 1032 898"
    underline-thickness="50"
    underline-position="-100"
    unicode-range="U+0078-E61A"
  />
<missing-glyph horiz-adv-x="374" 
d="M34 0v682h272v-682h-272zM68 34h204v614h-204v-614z" />
    <glyph glyph-name=".notdef" horiz-adv-x="374" 
d="M34 0v682h272v-682h-272zM68 34h204v614h-204v-614z" />
    <glyph glyph-name=".null" horiz-adv-x="0" 
 />
    <glyph glyph-name="nonmarkingreturn" horiz-adv-x="341" 
 />
    <glyph glyph-name="x" unicode="x" horiz-adv-x="1001" 
d="M281 543q-27 -1 -53 -1h-83q-18 0 -36.5 -6t-32.5 -18.5t-23 -32t-9 -45.5v-76h912v41q0 16 -0.5 30t-0.5 18q0 13 -5 29t-17 29.5t-31.5 22.5t-49.5 9h-133v-97h-438v97zM955 310v-52q0 -23 0.5 -52t0.5 -58t-10.5 -47.5t-26 -30t-33 -16t-31.5 -4.5q-14 -1 -29.5 -0.5
t-29.5 0.5h-32l-45 128h-439l-44 -128h-29h-34q-20 0 -45 1q-25 0 -41 9.5t-25.5 23t-13.5 29.5t-4 30v167h911zM163 247q-12 0 -21 -8.5t-9 -21.5t9 -21.5t21 -8.5q13 0 22 8.5t9 21.5t-9 21.5t-22 8.5zM316 123q-8 -26 -14 -48q-5 -19 -10.5 -37t-7.5 -25t-3 -15t1 -14.5
t9.5 -10.5t21.5 -4h37h67h81h80h64h36q23 0 34 12t2 38q-5 13 -9.5 30.5t-9.5 34.5q-5 19 -11 39h-368zM336 498v228q0 11 2.5 23t10 21.5t20.5 15.5t34 6h188q31 0 51.5 -14.5t20.5 -52.5v-227h-327z" />
    <glyph glyph-name="uniE600" unicode="&#xe600;" 
d="M862 765l-8 12h-653l-8 -10q-59 -76 -92 -143.5t-38.5 -117t-1.5 -82.5t17 -59q22 -44 62 -70t86 -26h5q92 3 156 69q57 -65 142 -65q88 0 145 69q86 -71 164 -71q66 0 112 54q23 27 30.5 65.5t3 77t-18.5 82.5t-29 77.5t-33.5 68t-26.5 48t-14 21.5zM226 320
q-28 0 -57 17.5t-45 50.5q-10 21 -13 47.5t2.5 68t34 99t78.5 122.5h601q18 -29 36 -63t36 -79t28 -85t7 -78.5t-24 -61.5q-30 -36 -72 -36q-30 0 -64.5 17t-51.5 30t-31 26v177h-51v-191q-41 -57 -111 -57q-31 0 -58 14t-38 25.5t-19 23.5v185h-51v-184q-10 -13 -23 -25
t-44 -27t-67 -16h-3zM823 13q-10 -26 -30 -34h-528q-7 0 -13 1.5t-10.5 4.5t-8.5 7t-6.5 8t-5 8.5t-4 8t-2.5 6.5t-1 5l-1 2v166h-51v-170q3 -15 9.5 -30.5t18.5 -31.5t31.5 -26.5t43.5 -10.5l539 1q7 2 16 6t26.5 22t26.5 44l2 201h-52v-188z" />
    <glyph glyph-name="uniE601" unicode="&#xe601;" 
d="M800.5 257q-7.5 0 -13.5 -5.5t-6 -13.5v0v-97q0 -15 -11 -26.5t-27 -11.5h-363h-167q-16 0 -27 11.5t-11 26.5v491q0 15 11 26.5t27 11.5h530q16 0 27 -11.5t11 -26.5v-102q0 -8 5.5 -13.5t13.5 -5.5t13.5 5.5t5.5 13.5v105q0 30 -21 51.5t-51 21.5h-538q-30 0 -51 -21.5
t-21 -51.5v-497q0 -30 21 -51.5t51 -21.5h538q30 0 51 21.5t21 51.5v100q0 8 -5.5 13.5t-13 5.5zM814 484h-277q-28 0 -48.5 -19t-22.5 -46q-1 -2 -1 -4v-60q0 -30 21 -51t51 -21h277q30 0 51 21t21 51v56q0 30 -21 51.5t-51 21.5zM848 359q0 -16 -11 -27t-27 -11h-243h-26
q-16 0 -27 11t-11 27v49q0 15 11 26.5t27 11.5h269q16 0 27 -11.5t11 -26.5v-49zM788.5 407q-9.5 0 -16.5 -7t-7 -16.5t7 -16.5t16.5 -7t16.5 7t7 16.5t-7 16.5t-16.5 7z" />
    <glyph glyph-name="uniE602" unicode="&#xe602;" 
d="M675 413h-127v127q0 15 -10.5 25.5t-25.5 10.5t-26 -10.5t-11 -25.5v-127h-127q-15 0 -25.5 -11t-10.5 -26t10.5 -25.5t25.5 -10.5h127v-127q0 -15 11 -26t26 -11t25.5 11t10.5 26v127h127q15 0 25.5 10.5t10.5 25.5t-10.5 26t-25.5 11zM511 831q-92 0 -176 -36t-145 -97
t-97 -145t-36 -176.5t36 -176.5t97 -144.5t145 -96.5t176.5 -36t176.5 36t144.5 96.5t96.5 144.5t36 176.5t-36 176.5t-96.5 145t-144.5 97t-177 36zM511 -21q-107 0 -198.5 53.5t-145 145t-53.5 199t53.5 199t145 145t199 53.5t199 -53.5t145 -145t53.5 -199t-53.5 -199
t-145 -145t-199.5 -53.5zM511 -21z" />
    <glyph glyph-name="uniE603" unicode="&#xe603;" 
d="M502 534h120v-60h-120v60zM502 624h270v-60h-270v60zM524 11q-10 12 -12 13h-32h-278q-12 0 -21 9t-9 21v660q0 12 9 21t21 9h570q12 0 21 -9t9 -21v-261q0 -30 3 -32q3 -1 14 -6q3 -2 9.5 -6t14 -8.5t8.5 -5.5q6 -4 9 9q2 6 2 15v355q0 12 -9 21t-21 9h-690
q-12 0 -21 -9t-9 -21v-780q0 -12 9 -21t21 -9h404q20 0 19 8q0 2 -3 5q-36 32 -38 34zM472 714h-270v-270h270v270zM262 504v150h150v-150h-150zM858 71q44 57 44 130q0 87 -62 149t-149.5 62t-149.5 -62t-62 -149.5t62 -149.5t150 -62q72 0 130 45l90 -91l37 37zM850 201
q0 -63 -42 -109l-9 -8q-46 -43 -108 -43q-66 0 -113 45.5t-47 111t47 111t113 45.5q69 0 112 -44q47 -46 47 -109zM502 714h270v-60h-270v60zM440 238q6 42 29 83l3 3v60h-270v-270h251l-3 20q-3 13 -6 29l-1 11h-181v150h150v-84z" />
    <glyph glyph-name="uniE604" unicode="&#xe604;" 
d="M859 -45h-694q-32 0 -54.5 22.5t-22.5 54.5v694q0 32 22.5 54.5t54.5 22.5h463q10 0 17.5 -7.5t7.5 -18t-7.5 -18t-17.5 -7.5h-438q-21 0 -36 -15t-15 -36v-644q0 -21 15 -36t36 -15h644q21 0 36 15t15 36v463q0 11 7.5 18.5t18 7.5t18 -7.5t7.5 -18.5v-488
q0 -32 -22.5 -54.5t-54.5 -22.5zM439 295q-7 -7 -18 -7t-18.5 7.5t-7.5 18t8 18.5l462 464q8 8 18.5 8t18 -7.5t7.5 -18t-7 -18.5zM439 295z" />
    <glyph glyph-name="uniE605" unicode="&#xe605;" 
d="M259 818q75 0 127.5 -53t52.5 -128v-168q0 -5 -3.5 -8.5t-8.5 -3.5h-168q-75 0 -128 53t-53 127.5t53 127.5t128 53zM259 855q-90 0 -154 -64t-64 -154t64 -153.5t154 -63.5h168q20 0 34.5 14.5t14.5 34.5v168q0 90 -63.5 154t-153.5 64zM427 311q5 0 8.5 -3.5t3.5 -8.5
v-168q0 -75 -52.5 -128t-127.5 -53t-128 53t-53 128t53 127.5t128 52.5h168zM427 348h-168q-90 0 -154 -63.5t-64 -153.5t64 -154t154 -64t153.5 64t63.5 154v168q0 20 -14.5 34.5t-34.5 14.5zM765.5 818q74.5 0 127.5 -53t53 -127.5t-53 -127.5t-128 -53h-168
q-5 0 -8.5 3.5t-3.5 8.5v168q0 75 53 128t127.5 53zM765 855q-90 0 -153.5 -64t-63.5 -154v-168q0 -20 14.5 -34.5t34.5 -14.5h168q90 0 154 63.5t64 153.5t-64 154t-154 64zM765 311q75 0 128 -53t53 -127.5t-53 -127.5t-127.5 -53t-127.5 53t-53 128v168q0 5 3.5 8.5
t8.5 3.5h168zM765 348h-168q-20 0 -34.5 -14.5t-14.5 -34.5v-168q0 -90 63.5 -154t153.5 -64t154 64t64 154t-64 153.5t-154 63.5z" />
    <glyph glyph-name="uniE606" unicode="&#xe606;" 
d="M990 382q0 97 -38 186t-102 153t-152.5 101.5t-185.5 37.5t-185.5 -37.5t-152.5 -101.5t-102 -153t-38 -186q0 -100 40 -190.5t111 -156.5l-1 -1l13 -10q0 -1 2 -2.5t3 -2.5q13 -11 26 -21q1 -1 4 -2.5t3 -2.5q16 -11 30 -20q1 0 2.5 -1t2.5 -1q16 -10 33 -18l2 -1
q17 -9 37 -16h1l1 -1q18 -7 38 -13q1 0 4 -1q18 -5 38 -8q1 -1 2 -1h3q19 -4 38 -6h3h2q22 -2 40.5 -2t40.5 2h1h3q19 2 39 6h1q2 0 3 1q20 3 39 8q0 1 2 1h1q20 6 38 13q1 0 2 1q21 8 38 16h1q17 9 34 19q1 0 3 1l1 1q15 9 31 20q0 1 2.5 2.5t3.5 2.5q14 10 27 22q1 0 3 2
l2 2l12 10v1q71 66 110.5 156t39.5 191zM67 382q0 91 35.5 173.5t95 142t142 95t173 35.5t173 -35.5t142 -95t95 -142t35.5 -173.5q0 -93 -37 -177t-103 -146q-49 47 -137 72q-31 13 -38 19l-7 7q-17 16 -19 31v68q23 27 42 87q11 5 21.5 18t13.5 29q8 37 -6 54
q19 72 16 129.5t-27 89.5q-25 34 -71 34q-2 3 -6 8q-11 14 -26 20.5t-52 6.5h-5q-97 0 -145 -57q-61 -74 -34 -232q-13 -18 -6 -51q6 -34 31 -47q21 -60 45 -88q2 -62 0 -73q-2 -14 -16 -27q-12 -12 -45 -25q-91 -25 -140 -73q-66 62 -103 146t-37 177zM789 34
q-12 -9 -23 -17l-2 -1l-3 -3q-12 -8 -27 -17l-6 -3q-14 -8 -29 -15q-1 0 -3 -1l-2 -1q-16 -7 -32 -13h-2q-34 -12 -69 -19q-4 0 -5 -1q-17 -2 -33 -4h-3h-3q-18 -2 -35 -2q-16 0 -35 2h-5l-34 4q-1 1 -4 1q-36 7 -70 18q-1 1 -2 1q-15 6 -31 13q-4 2 -6 2q-14 7 -28 15
q-3 1 -7 4q-15 8 -27 16l-6 5q-10 7 -21 15q0 1 -2 2.5t-3 1.5q43 41 127 64q41 16 57 32q21 21 26 45q2 15 0 86v7l-5 4q-23 24 -45 88l-1 11h-12q-3 1 -8 8t-6 16q-3 14 -1 24l11 2l-3 16q-27 150 26 214q38 45 120 45h5q20 0 31 -2t14 -4t6 -7q9 -13 20 -19l4 -3l9 1
q29 0 45 -21q20 -27 21 -81t-19 -121l-2 -16l12 -4q3 -9 -1 -24q-3 -13 -12 -22l-13 10l-7 -22q-19 -67 -41 -90l-4 -5v-83q3 -29 28 -53l7 -7q13 -10 50 -26q81 -23 123 -63q-1 -1 -4 -3v0zM789 34z" />
    <glyph glyph-name="uniE607" unicode="&#xe607;" 
d="M347 -2q-11 0 -19 8t-8 19t8 19l333 335l-333 335q-8 8 -8 19.5t8 19.5t19 8t19 -8l353 -355q8 -8 8 -19t-8 -19l-353 -354q-8 -8 -19 -8z" />
    <glyph glyph-name="uniE608" unicode="&#xe608;" 
d="M901 80v191v398v94q0 52 -34.5 86t-85.5 39h-5h-4h-321h-179q-47 0 -80.5 -13.5t-56.5 -50.5q-6 -9 -9.5 -19t-4.5 -23.5t-1.5 -21t0 -24t0.5 -21.5v-177v-434v-95q0 -53 38 -88.5t90 -35.5h357q14 0 45 -1.5t52.5 -1.5t51 1.5t50.5 8t42 17.5t34.5 31.5t18.5 48.5
q3 13 3 28t-0.5 35t-0.5 28zM845 547v-436v-101q0 -20 -7.5 -33.5t-17.5 -20t-27 -10t-28.5 -4t-30.5 -0.5h-405q-7 0 -30 -1t-35.5 -1t-30 3.5t-30.5 11.5q-10 6 -16.5 15.5t-9 24t-3 23.5t0 28t0.5 23v415v281q0 12 2.5 22t8.5 16.5t11 12t16 8t16.5 4.5t19 3t17.5 1h20
h17h203h270q20 -1 33.5 -9t20.5 -17t10.5 -26t4 -28.5t0.5 -31.5v-173zM595 50h-166q-12 0 -20 8t-8 20q0 11 8 19t20 8h166q12 0 20 -8t8 -19q0 -12 -8 -20t-20 -8zM653 720h-291q-31 0 -53 -22.5t-22 -53.5v-352q0 -31 22 -53t53 -22h291q31 0 53.5 22t22.5 53v352
q0 31 -22.5 53.5t-53.5 22.5zM677 324q0 -21 -14.5 -35t-35.5 -14h-246q-19 0 -33 13.5t-14 33.5v291q0 23 16.5 39t39.5 16h231q23 0 39.5 -16t16.5 -39v-289z" />
    <glyph glyph-name="uniE609" unicode="&#xe609;" 
d="M352 496h319q9 0 15.5 6.5t6.5 15t-6.5 15t-15.5 6.5h-319q-9 0 -15.5 -6.5t-6.5 -15t6.5 -15t15.5 -6.5zM671 371h-319q-9 0 -15.5 -6.5t-6.5 -15.5t6.5 -15t15.5 -6h319q9 0 15.5 6t6.5 15t-6.5 15.5t-15.5 6.5zM671 202h-319q-9 0 -15.5 -6t-6.5 -15t6.5 -15.5
t15.5 -6.5h319q9 0 15.5 6.5t6.5 15.5t-6.5 15t-15.5 6zM770 745h-59q-9 0 -15.5 -6.5t-6.5 -15.5t6.5 -15t15.5 -6h59q29 0 50 -20t21 -49v-558q0 -28 -21 -48.5t-50 -20.5h-517q-29 0 -49.5 20.5t-20.5 48.5v558q0 29 20.5 49t49.5 20h60q10 0 16.5 6t6.5 15t-6.5 15.5
t-16.5 6.5h-60q-47 0 -81 -33t-34 -79v-558q0 -46 34 -79t81 -33h517q48 0 81.5 33t33.5 79v558q0 46 -33.5 79t-81.5 33zM386 761h251q9 0 15.5 6.5t6.5 15.5t-6.5 15t-15.5 6h-251q-9 0 -15.5 -6t-6.5 -15t6.5 -15.5t15.5 -6.5zM386 761z" />
    <glyph glyph-name="uniE60A" unicode="&#xe60a;" 
d="M510 619q-71 0 -121 -50t-50 -120.5t50 -120.5t121 -50t121 50t50 120.5t-50 120.5t-121 50zM510 327q-51 0 -87 35.5t-36 86t36 86.5t87 36t87 -36t36 -86.5t-36 -86t-87 -35.5zM894 618q-32 75 -89 133q-58 58 -132 89q-78 34 -162.5 34t-161.5 -34q-75 -31 -132 -89
q-58 -58 -89 -133q-33 -77 -33 -160q0 -104 52 -211q45 -90 120 -172q65 -70 134.5 -116.5t109.5 -46.5t109.5 46.5t133.5 115.5q76 82 120 172q53 107 53 212q0 83 -33 160zM828 268q-40 -83 -111 -159q-61 -66 -126 -109q-56 -37 -80 -37t-80 38q-65 43 -126 109
q-71 76 -112 159q-47 97 -47 189q0 73 29 140q28 66 78.5 116.5t115.5 78.5q68 30 142 30t142 -30q65 -28 115.5 -78.5t78.5 -116.5q29 -67 29 -140q0 -93 -48 -190z" />
    <glyph glyph-name="uniE60B" unicode="&#xe60b;" 
d="M602 144q-12 0 -21 9t-9 21v330q0 12 9 21t21 9t21 -9t9 -21v-330q0 -12 -9 -21t-21 -9zM422 144q-12 0 -21 9t-9 21v330q0 12 9 21t21 9t21 -9t9 -21v-330q0 -12 -9 -21t-21 -9zM902 654h-150v60q0 37 -26 63.5t-63 26.5h-301q-37 0 -63.5 -26.5t-26.5 -63.5v-60h-150
q-12 0 -21 -9t-9 -21t9 -21t21 -9h780q12 0 21 9t9 21t-9 21t-21 9zM332 714q0 12 9 21t21 9h301q12 0 20.5 -8.5t8.5 -21.5v-60h-360v60zM722 -36h-420q-37 0 -63.5 26.5t-26.5 63.5v450q0 13 9 21.5t21 8.5t21 -8.5t9 -21.5v-450q0 -12 9 -21t21 -9h420q13 0 21.5 9
t8.5 21v449q0 13 9 21.5t21.5 8.5t21 -8.5t8.5 -21.5v-449q0 -37 -26.5 -63.5t-63.5 -26.5z" />
    <glyph glyph-name="uniE60C" unicode="&#xe60c;" 
d="M331 108l22 82q3 14 17 14h7q14 0 17 -14l16 -61q1 -6 -2 -11t-8 -6l-59 -14q-6 -2 -9 1t-1 9zM326 672h155q6 0 10 -4t4 -10v-138q0 -14 -10 -24l-31 -30q-11 -9 -25 -9h-48q-14 0 -25 9l-28 25q-11 10 -14 12q-2 2 -2 6v17v132q0 6 4 10t10 4zM912 251l-104 33
q-8 3 -15.5 -0.5t-10 -11t1.5 -14.5t13 -10l103 -33q9 -2 16.5 1t10 10.5t-2 14.5t-12.5 10zM797 412l103 33q9 3 16.5 -0.5t9.5 -11t-2 -14.5t-12 -10l-104 -33q-8 -2 -16 1.5t-10 10.5t2 14.5t13 9.5zM811 349h109q9 0 15 -6t6 -13.5t-6 -13t-15 -5.5h-109q-9 0 -15 5.5
t-6 13t6 13.5t15 6zM81 212v-214q0 -6 4 -10t10 -4h190q5 0 9.5 4t4.5 10v50q0 14 -8 14t-5 14l40 147q3 14 17 14h309q6 0 10.5 4t4.5 10v29q0 5 4 9.5t10 4.5h32q6 0 10 4t4 10v42q0 6 -4 10t-10 4h-32q-6 0 -10 4t-4 10l-1 31q0 6 -4 10t-10 4h-109q-6 0 -7 3t3 7l31 29
q10 10 10 24v291q0 6 -4 10t-10 4h-295h-28h-2q-6 0 -10 -4t-4 -10v-292q0 -14 11 -24l33 -29q4 -3 3 -6t-7 -3h-115q-14 0 -18 -13l-49 -170q-4 -14 -4 -28v0zM345 447l-47 42q-11 9 -11 23v205q0 6 4.5 10t9.5 4h205q5 0 9.5 -4t4.5 -10v-206q0 -14 -11 -23l-42 -40
q-10 -10 -24 -10h-73q-14 0 -25 9z" />
    <glyph glyph-name="uniE60D" unicode="&#xe60d;" 
d="M512 -96q-96 0 -184 36.5t-155.5 104.5t-104 155.5t-36.5 183.5t36.5 184t104.5 155.5t155.5 104t183.5 36.5t183.5 -36.5t155.5 -104.5q92 -92 125 -215.5t0 -247t-125 -215.5q-68 -68 -155.5 -104.5t-183.5 -36.5zM512 808q-85 0 -162.5 -32t-137.5 -92t-92 -137.5
t-32 -162.5t32 -162.5t92 -137.5t137.5 -92t162.5 -32t162 32t138 93q81 81 110 190t0 218.5t-110 190.5q-61 60 -138 92t-162 32zM707 194q-9 0 -17 5l-166 101q-2 0 -3 1q-12 7 -14 10l-1 1h-1q-28 17 -28 32v282q0 15 10.5 26t26 11t26 -11t10.5 -26v-266l169 -97
q14 -8 19 -23q6 -15 -2 -28q-10 -18 -29 -18z" />
    <glyph glyph-name="uniE60E" unicode="&#xe60e;" 
d="M78 -35h870q26 0 44 18.5t18 44.5v714q0 26 -18 44.5t-44 18.5h-870q-26 0 -44 -18.5t-18 -44.5v-714q0 -26 18 -44.5t44 -18.5zM78 28v183l249 241l257 -256q9 -10 21 -10t22 8l114 103l204 -210q2 -1 3 -2v-57h-870zM948 742v-568l-183 186q-8 9 -19.5 9.5t-20.5 -6.5
l-117 -102l-258 255q-8 10 -22 11q-14 0 -23 -9l-227 -221v445h870zM948 742zM730 494q26 0 44 18t18 43.5t-18 44t-43.5 18.5t-44 -18.5t-18.5 -44t18.5 -43.5t43.5 -18zM730 494z" />
    <glyph glyph-name="uniE60F" unicode="&#xe60f;" 
d="M509 864q-98 0 -186.5 -38t-153 -102.5t-102.5 -153t-38 -186.5t38 -186.5t102.5 -153t153 -102.5t186.5 -38t187 38t153 102.5t102 153t38 186.5t-38 186.5t-102 153t-153 102.5t-187 38zM814 79q-83 -83 -194 -112.5t-222.5 0t-194.5 112.5q-62 62 -94.5 143
t-32.5 162.5t32.5 162.5t94.5 143t143 94.5t162.5 32.5t162.5 -32.5t143 -94.5t94.5 -143t32.5 -162.5t-32.5 -162.5t-94.5 -143zM645 131z" />
    <glyph glyph-name="uniE610" unicode="&#xe610;" 
d="M826 525l-402 -402q-7 -7 -17 -7t-18 7q-191 179 -192 192q0 12 9.5 23t26.5 13l142 -117q7 -7 18.5 -7t19.5 7q377 317 383 321q10 4 23 -3t7 -27zM512 864q-98 0 -186.5 -38t-153 -102.5t-102.5 -153t-38 -186.5t38 -186.5t102.5 -153t153 -102.5t186.5 -38t186.5 38
t153 102.5t102.5 153t38 186.5t-38 186.5t-102.5 153t-153 102.5t-186.5 38z" />
    <glyph glyph-name="uniE611" unicode="&#xe611;" 
d="M443 858q-110 0 -203.5 -54t-147.5 -147.5t-54 -203.5t54 -203t147.5 -147.5t203.5 -54.5t203 54.5t147.5 147.5t54.5 203t-54.5 203.5t-147.5 147.5t-203 54zM443 103q-95 0 -176 47t-128 127.5t-47 175.5t47 176t128 128t176 47t175.5 -47t127.5 -128t47 -176
t-47 -175.5t-127.5 -127.5t-175.5 -47zM978 -43l-142 137q-8 7 -19.5 7t-18.5 -8q-8 -8 -8 -19.5t9 -18.5l141 -137q8 -8 19 -8t19 8t8 19.5t-8 19.5z" />
    <glyph glyph-name="uniE612" unicode="&#xe612;" 
d="M15 328q2 -21 303 -302q12 -12 28 -12t27 11l634 634q9 32 -11.5 42.5t-35.5 4.5q-5 -2 -156 -128.5t-300 -251.5l-149 -126q-13 -11 -30.5 -11t-29.5 11l-224 184q-27 -2 -42 -20t-14 -36z" />
    <glyph glyph-name="uniE613" unicode="&#xe613;" 
d="M525 222l-175 194h322zM525 222z" />
    <glyph glyph-name="uniE614" unicode="&#xe614;" 
d="M744 -122q18 0 30.5 13t12.5 31t-13 31l-436 428l441 441q12 13 12 31t-12.5 30.5t-30.5 12.5t-31 -13l-472 -472q-12 -12 -12 -30.5t13 -30.5l467 -459q13 -13 31 -13z" />
    <glyph glyph-name="uniE615" unicode="&#xe615;" 
d="M516 411h94v137h-94v-137zM561 526q9 -22 27 -84l-27 -9l-27 80zM68 828v-888h888v888h-888zM250 642h195v-382h-40v342h-115v-342h-40v382zM245 100l-22 35q59 33 85 85q22 59 22 142v200h35v-200q0 -96 -31 -173q-23 -53 -89 -89zM436 109q-23 41 -75 93l27 26
q57 -57 80 -88zM756 100h-40v26h-168v-26h-40v235h253v-235h-5zM779 375h-303v213h72q-14 40 -32 76l45 9q13 -34 27 -80h71q17 53 22 84l44 -4q-5 -34 -22 -76h76v-222zM543 215h169v-49h-169v49zM543 300h169v-54h-169v54zM645 411h94v137h-94v-137zM690 526l31 -9
q-18 -62 -27 -89l-26 9q4 27 22 89z" />
    <glyph glyph-name="uniE616" unicode="&#xe616;" 
d="M512 -96q-98 0 -186.5 38t-153 102t-102.5 153t-38 186.5t38 186.5t102.5 153t153 102t186 38t186.5 -38t153 -102t102 -153t38 -186.5t-38 -186.5t-102 -153t-153 -102t-186 -38zM512 812q-116 0 -214.5 -57.5t-156 -156t-57.5 -215t57.5 -215t156 -155.5t214.5 -57
t214.5 57t156 155.5t57.5 215t-57.5 215t-156 156t-214.5 57.5zM512 137q-16 0 -27.5 11.5t-11.5 27.5v311q0 17 11.5 28t27.5 11t27.5 -11t11.5 -28v-311q0 -16 -11.5 -27.5t-27.5 -11.5zM512 578q-16 0 -27.5 11.5t-11.5 27.5t11.5 27.5t27.5 11.5t27.5 -11.5t11.5 -27.5
t-11.5 -27.5t-27.5 -11.5z" />
    <glyph glyph-name="uniE617" unicode="&#xe617;" 
d="M2 -132h1030v1030zM885 313q-239 -276 -254 -290q-6 -7 -14.5 -7t-13.5 3l-5 4l-136 114q-7 14 8 25q6 5 14.5 5t13.5 -2l5 -3q73 -55 92 -69q8 -7 15 -7t10.5 3t3.5 4l239 239q5 5 12.5 5.5t12.5 -0.5l5 -2q1 -3 -0.5 -8.5t-4.5 -9.5z" />
    <glyph glyph-name="uniE618" unicode="&#xe618;" 
d="M952 384q0 -12 -8.5 -21t-20.5 -9h-822q-12 0 -20.5 9t-8.5 21t8.5 21t20.5 9h822q12 0 20.5 -9t8.5 -21zM512 824q12 0 21 -8.5t9 -20.5v-822q0 -12 -9 -20.5t-21 -8.5t-21 8.5t-9 20.5v822q0 12 9 20.5t21 8.5z" />
    <glyph glyph-name="uniE619" unicode="&#xe619;" 
d="M838 843h-626q-18 0 -32.5 -5t-23.5 -12.5t-15.5 -17t-9.5 -18.5t-4.5 -17t-2.5 -13v-5v-742q0 -4 0.5 -10t5.5 -21t13.5 -26.5t26.5 -21t43 -9.5h519l191 153v677q0 4 -0.5 10t-5 21t-12.5 26.5t-25.5 21t-41.5 9.5zM880 100l-173 -131h-475q-18 0 -31.5 6.5t-19.5 16.5
t-9.5 19.5t-3.5 16.5l-1 6v700q0 2 0.5 6.5t4 16t9.5 20t19.5 15.5t31.5 7h583q19 0 32 -6.5t19 -16.5t9.5 -19.5t4.5 -16.5v-6v-634zM275 362h497v-44h-497v44zM275 537h497v-44h-497v44zM275 712h238v-44h-238v44zM837 209h-194v-196h43v152h151v44z" />
    <glyph glyph-name="uniE61A" unicode="&#xe61a;" 
d="M512 815q-117 0 -216.5 -57.5t-157 -157t-57.5 -216.5t57.5 -216.5t157 -157t216.5 -57.5t216.5 57.5t157 157t57.5 216.5t-57.5 216.5t-157 157t-216.5 57.5zM693 239q8 -7 8 -18t-7.5 -18.5t-18.5 -7.5t-18 8l-145 145l-145 -145q-7 -8 -18 -8t-18.5 7.5t-7.5 18.5
t8 18l145 145l-145 145q-8 7 -8 18t7.5 18.5t18.5 7.5t18 -8l145 -145l145 145q7 8 18 8t18.5 -7.5t7.5 -18.5t-8 -18l-145 -145z" />
  </font>
</defs>
</svg>
